<svg xmlns="http://www.w3.org/2000/svg" xmlns:xlink="http://www.w3.org/1999/xlink" width="500" zoomAndPan="magnify" viewBox="0 0 375 374.999991" height="500" preserveAspectRatio="xMidYMid meet" version="1.0"><defs><g/><clipPath id="dc3eb4bf02"><path d="M 58.941406 145.835938 L 316.191406 145.835938 L 316.191406 190.085938 L 58.941406 190.085938 Z M 58.941406 145.835938 " clip-rule="nonzero"/></clipPath></defs><g clip-path="url(#dc3eb4bf02)"><path fill="#a83a11" d="M 71.34375 170.015625 C 73.1875 168.726562 74.144531 167.515625 74.144531 166.226562 C 74.144531 164.699219 73.1875 163.410156 71.984375 162.441406 C 71.34375 161.796875 68.863281 160.910156 70.464844 158.414062 C 84.066406 161.878906 127.277344 145.929688 164.882812 145.929688 C 188.488281 145.929688 211.132812 149.957031 233.855469 159.382812 C 248.179688 159.382812 303.46875 165.34375 316.191406 186.929688 C 315.554688 187.574219 314.671875 189.105469 314.351562 190.070312 L 311.230469 190.070312 C 311.550781 189.105469 312.191406 187.894531 312.753906 186.929688 C 304.671875 174.445312 246.898438 164.375 231.054688 164.375 C 208.332031 154.066406 185.367188 150.925781 164.882812 150.925781 C 125.117188 150.925781 97.191406 164.054688 75.425781 162.523438 C 75.425781 164.054688 77.90625 165.664062 77.90625 168.160156 C 77.90625 170.335938 76.945312 172.511719 75.425781 174.445312 C 70.464844 174.363281 62.945312 179.117188 62.945312 189.988281 L 58.941406 189.988281 C 58.941406 184.671875 58.941406 175.972656 71.34375 170.015625 Z M 71.34375 170.015625 " fill-opacity="1" fill-rule="nonzero"/></g><g fill="#a83a11" fill-opacity="1"><g transform="translate(79.382248, 197.092762)"><g><path d="M 6.769531 0 L 17.460938 0 L 29.644531 -24.996094 L 20.308594 -24.996094 L 13.332031 -7.53125 L 13.261719 -7.53125 L 11.835938 -24.996094 L 2.535156 -24.996094 Z M 6.769531 0 "/></g></g></g><g fill="#545454" fill-opacity="1"><g transform="translate(106.481691, 197.092762)"><g><path d="M 0.171875 0 L 9.164062 0 L 10.277344 -7.011719 L 14.300781 -7.011719 C 21.800781 -7.011719 25.933594 -10.761719 25.933594 -17.183594 C 25.933594 -22.285156 22.632812 -24.996094 16.664062 -24.996094 L 4.132812 -24.996094 Z M 11.316406 -13.261719 L 12.117188 -18.746094 L 14.023438 -18.746094 C 15.828125 -18.746094 16.835938 -17.949219 16.835938 -16.453125 C 16.835938 -14.40625 15.515625 -13.261719 13.15625 -13.261719 Z M 11.316406 -13.261719 "/></g></g></g><g fill="#545454" fill-opacity="1"><g transform="translate(131.818399, 197.092762)"><g><path d="M -1.421875 0 L 7.429688 0 L 9.164062 -3.886719 L 16.074219 -3.886719 L 16.386719 0 L 25.722656 0 L 21.660156 -24.996094 L 10.554688 -24.996094 Z M 11.28125 -9.71875 L 14.996094 -18.292969 L 15.066406 -18.292969 L 15.796875 -9.71875 Z M 11.28125 -9.71875 "/></g></g></g><g fill="#545454" fill-opacity="1"><g transform="translate(158.959908, 197.092762)"><g><path d="M 18.851562 0.554688 C 21.070312 0.554688 23.433594 -0.105469 25.027344 -1.144531 L 24.578125 -5.066406 C 24.195312 -4.894531 23.710938 -4.722656 23.257812 -4.722656 C 22.632812 -4.722656 22.320312 -5.207031 22.21875 -5.867188 L 22.078125 -7.289062 C 21.941406 -8.644531 21.558594 -9.511719 20.621094 -9.894531 L 20.621094 -9.929688 C 24.265625 -11.386719 26.246094 -14.300781 26.246094 -17.84375 C 26.246094 -22.460938 22.808594 -24.996094 16.558594 -24.996094 L 4.132812 -24.996094 L 0.171875 0 L 9.199219 0 L 10.519531 -8.332031 L 11.734375 -8.332031 C 12.808594 -8.332031 13.191406 -7.464844 13.332031 -6.457031 L 13.574219 -4.164062 C 13.886719 -1.25 15.863281 0.554688 18.851562 0.554688 Z M 11.386719 -13.886719 L 12.148438 -18.746094 L 14.824219 -18.746094 C 16.316406 -18.746094 17.148438 -18.015625 17.148438 -16.734375 C 17.148438 -14.894531 16.039062 -13.886719 14.058594 -13.886719 Z M 11.386719 -13.886719 "/></g></g></g><g fill="#545454" fill-opacity="1"><g transform="translate(185.511385, 197.092762)"><g><path d="M 18.851562 0.554688 C 21.070312 0.554688 23.433594 -0.105469 25.027344 -1.144531 L 24.578125 -5.066406 C 24.195312 -4.894531 23.710938 -4.722656 23.257812 -4.722656 C 22.632812 -4.722656 22.320312 -5.207031 22.21875 -5.867188 L 22.078125 -7.289062 C 21.941406 -8.644531 21.558594 -9.511719 20.621094 -9.894531 L 20.621094 -9.929688 C 24.265625 -11.386719 26.246094 -14.300781 26.246094 -17.84375 C 26.246094 -22.460938 22.808594 -24.996094 16.558594 -24.996094 L 4.132812 -24.996094 L 0.171875 0 L 9.199219 0 L 10.519531 -8.332031 L 11.734375 -8.332031 C 12.808594 -8.332031 13.191406 -7.464844 13.332031 -6.457031 L 13.574219 -4.164062 C 13.886719 -1.25 15.863281 0.554688 18.851562 0.554688 Z M 11.386719 -13.886719 L 12.148438 -18.746094 L 14.824219 -18.746094 C 16.316406 -18.746094 17.148438 -18.015625 17.148438 -16.734375 C 17.148438 -14.894531 16.039062 -13.886719 14.058594 -13.886719 Z M 11.386719 -13.886719 "/></g></g></g><g fill="#545454" fill-opacity="1"><g transform="translate(212.062863, 197.092762)"><g><path d="M 13.746094 0.832031 C 22.808594 0.832031 29.472656 -6.039062 29.472656 -14.960938 C 29.472656 -21.628906 24.75 -25.828125 16.90625 -25.828125 C 7.8125 -25.828125 1.144531 -18.988281 1.144531 -10.03125 C 1.144531 -3.367188 5.902344 0.832031 13.746094 0.832031 Z M 14.683594 -6.804688 C 11.835938 -6.804688 10.277344 -8.46875 10.277344 -11.210938 C 10.277344 -14.824219 12.324219 -18.191406 15.898438 -18.191406 C 18.78125 -18.191406 20.34375 -16.523438 20.34375 -13.78125 C 20.34375 -10.207031 18.292969 -6.804688 14.683594 -6.804688 Z M 14.683594 -6.804688 "/></g></g></g><g fill="#545454" fill-opacity="1"><g transform="translate(241.564505, 197.092762)"><g><path d="M 5.589844 0 L 14.613281 0 L 17.355469 -17.355469 L 23.675781 -17.355469 L 24.890625 -24.996094 L 3.226562 -24.996094 L 2.011719 -17.355469 L 8.332031 -17.355469 Z M 5.589844 0 "/></g></g></g><g fill="#304543" fill-opacity="1"><g transform="translate(105.78642, 212.017332)"><g><path d="M 2.046875 0 L 0.859375 -5.953125 L 1.640625 -5.953125 L 2.59375 -0.78125 L 5.40625 -5.953125 L 6.171875 -5.953125 L 2.875 0 Z M 2.046875 0 "/></g></g></g><g fill="#304543" fill-opacity="1"><g transform="translate(114.845125, 212.017332)"><g><path d="M 3 0.109375 C 2.507812 0.109375 2.078125 0 1.703125 -0.21875 C 1.328125 -0.4375 1.035156 -0.738281 0.828125 -1.125 C 0.617188 -1.507812 0.515625 -1.945312 0.515625 -2.4375 C 0.515625 -2.9375 0.609375 -3.40625 0.796875 -3.84375 C 0.984375 -4.28125 1.238281 -4.660156 1.5625 -4.984375 C 1.882812 -5.316406 2.257812 -5.578125 2.6875 -5.765625 C 3.125 -5.953125 3.582031 -6.046875 4.0625 -6.046875 C 4.550781 -6.046875 4.984375 -5.9375 5.359375 -5.71875 C 5.734375 -5.507812 6.023438 -5.210938 6.234375 -4.828125 C 6.441406 -4.453125 6.546875 -4.019531 6.546875 -3.53125 C 6.546875 -3.019531 6.453125 -2.546875 6.265625 -2.109375 C 6.085938 -1.671875 5.832031 -1.285156 5.5 -0.953125 C 5.164062 -0.617188 4.785156 -0.359375 4.359375 -0.171875 C 3.929688 0.015625 3.476562 0.109375 3 0.109375 Z M 3.109375 -0.53125 C 3.472656 -0.53125 3.816406 -0.601562 4.140625 -0.75 C 4.472656 -0.90625 4.757812 -1.117188 5 -1.390625 C 5.25 -1.660156 5.445312 -1.972656 5.59375 -2.328125 C 5.738281 -2.691406 5.8125 -3.082031 5.8125 -3.5 C 5.8125 -3.894531 5.734375 -4.234375 5.578125 -4.515625 C 5.421875 -4.804688 5.203125 -5.03125 4.921875 -5.1875 C 4.640625 -5.34375 4.320312 -5.421875 3.96875 -5.421875 C 3.59375 -5.421875 3.238281 -5.34375 2.90625 -5.1875 C 2.582031 -5.039062 2.296875 -4.832031 2.046875 -4.5625 C 1.796875 -4.289062 1.601562 -3.976562 1.46875 -3.625 C 1.332031 -3.269531 1.265625 -2.882812 1.265625 -2.46875 C 1.265625 -2.070312 1.335938 -1.726562 1.484375 -1.4375 C 1.640625 -1.144531 1.859375 -0.921875 2.140625 -0.765625 C 2.421875 -0.609375 2.742188 -0.53125 3.109375 -0.53125 Z M 3.109375 -0.53125 "/></g></g></g><g fill="#304543" fill-opacity="1"><g transform="translate(124.974235, 212.017332)"><g><path d="M 1.65625 0 L 2.59375 -5.375 L 0.828125 -5.375 L 0.921875 -5.953125 L 5.1875 -5.953125 L 5.078125 -5.375 L 3.3125 -5.375 L 2.359375 0 Z M 1.65625 0 "/></g></g></g><g fill="#304543" fill-opacity="1"><g transform="translate(133.098465, 212.017332)"><g><path d="M 0.265625 0 L 1.3125 -5.953125 L 3.21875 -5.953125 C 3.625 -5.953125 3.953125 -5.878906 4.203125 -5.734375 C 4.460938 -5.597656 4.648438 -5.414062 4.765625 -5.1875 C 4.890625 -4.96875 4.953125 -4.722656 4.953125 -4.453125 C 4.953125 -3.960938 4.8125 -3.550781 4.53125 -3.21875 C 4.25 -2.894531 3.875 -2.675781 3.40625 -2.5625 L 4.25 0 L 3.46875 0 L 2.703125 -2.453125 C 2.660156 -2.453125 2.617188 -2.453125 2.578125 -2.453125 L 1.40625 -2.453125 L 0.984375 0 Z M 1.515625 -3.015625 L 2.671875 -3.015625 C 3.140625 -3.015625 3.515625 -3.128906 3.796875 -3.359375 C 4.078125 -3.597656 4.21875 -3.941406 4.21875 -4.390625 C 4.21875 -4.648438 4.128906 -4.875 3.953125 -5.0625 C 3.773438 -5.25 3.476562 -5.34375 3.0625 -5.34375 L 1.921875 -5.34375 Z M 1.515625 -3.015625 "/></g></g></g><g fill="#304543" fill-opacity="1"><g transform="translate(141.520024, 212.017332)"><g><path d="M 0.265625 0 L 1.3125 -5.953125 L 4.75 -5.953125 L 4.640625 -5.375 L 1.921875 -5.375 L 1.5625 -3.28125 L 4.015625 -3.28125 L 3.921875 -2.71875 L 1.453125 -2.71875 L 1.078125 -0.5625 L 3.796875 -0.5625 L 3.703125 0 Z M 0.265625 0 "/></g></g></g><g fill="#304543" fill-opacity="1"><g transform="translate(149.49983, 212.017332)"><g/></g></g><g fill="#304543" fill-opacity="1"><g transform="translate(155.2942, 212.017332)"><g><path d="M 2.28125 0.109375 C 1.894531 0.109375 1.554688 0.046875 1.265625 -0.078125 C 0.972656 -0.210938 0.742188 -0.394531 0.578125 -0.625 C 0.410156 -0.863281 0.328125 -1.132812 0.328125 -1.4375 C 0.328125 -1.488281 0.328125 -1.546875 0.328125 -1.609375 C 0.335938 -1.671875 0.347656 -1.726562 0.359375 -1.78125 L 1.109375 -1.78125 C 1.097656 -1.707031 1.09375 -1.632812 1.09375 -1.5625 C 1.09375 -1.25 1.207031 -0.992188 1.4375 -0.796875 C 1.664062 -0.597656 1.972656 -0.5 2.359375 -0.5 C 2.816406 -0.5 3.160156 -0.609375 3.390625 -0.828125 C 3.628906 -1.054688 3.75 -1.347656 3.75 -1.703125 C 3.75 -1.890625 3.703125 -2.046875 3.609375 -2.171875 C 3.515625 -2.296875 3.390625 -2.394531 3.234375 -2.46875 C 3.078125 -2.550781 2.898438 -2.625 2.703125 -2.6875 C 2.503906 -2.757812 2.304688 -2.832031 2.109375 -2.90625 C 1.742188 -3.039062 1.46875 -3.222656 1.28125 -3.453125 C 1.09375 -3.691406 1 -3.960938 1 -4.265625 C 1 -4.617188 1.085938 -4.929688 1.265625 -5.203125 C 1.441406 -5.472656 1.6875 -5.679688 2 -5.828125 C 2.320312 -5.972656 2.691406 -6.046875 3.109375 -6.046875 C 3.441406 -6.046875 3.738281 -5.988281 4 -5.875 C 4.257812 -5.757812 4.457031 -5.597656 4.59375 -5.390625 C 4.738281 -5.179688 4.8125 -4.941406 4.8125 -4.671875 C 4.8125 -4.578125 4.800781 -4.488281 4.78125 -4.40625 L 4.046875 -4.40625 C 4.046875 -4.4375 4.046875 -4.460938 4.046875 -4.484375 C 4.046875 -4.503906 4.046875 -4.53125 4.046875 -4.5625 C 4.046875 -4.78125 3.957031 -4.976562 3.78125 -5.15625 C 3.613281 -5.34375 3.359375 -5.4375 3.015625 -5.4375 C 2.640625 -5.4375 2.335938 -5.335938 2.109375 -5.140625 C 1.878906 -4.941406 1.765625 -4.6875 1.765625 -4.375 C 1.765625 -4.15625 1.832031 -3.984375 1.96875 -3.859375 C 2.101562 -3.734375 2.285156 -3.628906 2.515625 -3.546875 C 2.753906 -3.460938 3.015625 -3.367188 3.296875 -3.265625 C 3.640625 -3.128906 3.925781 -2.941406 4.15625 -2.703125 C 4.394531 -2.472656 4.515625 -2.171875 4.515625 -1.796875 C 4.515625 -1.410156 4.421875 -1.078125 4.234375 -0.796875 C 4.054688 -0.515625 3.796875 -0.289062 3.453125 -0.125 C 3.117188 0.03125 2.726562 0.109375 2.28125 0.109375 Z M 2.28125 0.109375 "/></g></g></g><g fill="#304543" fill-opacity="1"><g transform="translate(163.690274, 212.017332)"><g><path d="M 0.265625 0 L 1.3125 -5.953125 L 3.265625 -5.953125 C 3.671875 -5.953125 4.003906 -5.882812 4.265625 -5.75 C 4.523438 -5.613281 4.71875 -5.429688 4.84375 -5.203125 C 4.96875 -4.972656 5.03125 -4.726562 5.03125 -4.46875 C 5.03125 -4.039062 4.925781 -3.679688 4.71875 -3.390625 C 4.519531 -3.097656 4.242188 -2.875 3.890625 -2.71875 C 3.535156 -2.5625 3.125 -2.484375 2.65625 -2.484375 L 1.421875 -2.484375 L 0.984375 0 Z M 1.515625 -3.078125 L 2.75 -3.078125 C 3.226562 -3.078125 3.601562 -3.1875 3.875 -3.40625 C 4.144531 -3.625 4.28125 -3.957031 4.28125 -4.40625 C 4.28125 -4.675781 4.191406 -4.898438 4.015625 -5.078125 C 3.835938 -5.265625 3.546875 -5.359375 3.140625 -5.359375 L 1.921875 -5.359375 Z M 1.515625 -3.078125 "/></g></g></g><g fill="#304543" fill-opacity="1"><g transform="translate(172.018393, 212.017332)"><g><path d="M 0.265625 0 L 1.3125 -5.953125 L 4.75 -5.953125 L 4.640625 -5.375 L 1.921875 -5.375 L 1.5625 -3.28125 L 4.015625 -3.28125 L 3.921875 -2.71875 L 1.453125 -2.71875 L 1.078125 -0.5625 L 3.796875 -0.5625 L 3.703125 0 Z M 0.265625 0 "/></g></g></g><g fill="#304543" fill-opacity="1"><g transform="translate(179.998196, 212.017332)"><g><path d="M 2.875 0.109375 C 2.375 0.109375 1.945312 0.0078125 1.59375 -0.1875 C 1.238281 -0.394531 0.96875 -0.675781 0.78125 -1.03125 C 0.59375 -1.382812 0.5 -1.800781 0.5 -2.28125 C 0.5 -2.8125 0.582031 -3.304688 0.75 -3.765625 C 0.925781 -4.222656 1.171875 -4.625 1.484375 -4.96875 C 1.796875 -5.3125 2.160156 -5.578125 2.578125 -5.765625 C 2.992188 -5.953125 3.445312 -6.046875 3.9375 -6.046875 C 4.613281 -6.046875 5.140625 -5.882812 5.515625 -5.5625 C 5.890625 -5.238281 6.085938 -4.785156 6.109375 -4.203125 L 5.296875 -4.203125 C 5.285156 -4.578125 5.15625 -4.875 4.90625 -5.09375 C 4.664062 -5.3125 4.304688 -5.421875 3.828125 -5.421875 C 3.460938 -5.421875 3.125 -5.34375 2.8125 -5.1875 C 2.5 -5.03125 2.222656 -4.8125 1.984375 -4.53125 C 1.753906 -4.25 1.570312 -3.921875 1.4375 -3.546875 C 1.3125 -3.171875 1.25 -2.769531 1.25 -2.34375 C 1.25 -1.769531 1.398438 -1.320312 1.703125 -1 C 2.015625 -0.6875 2.441406 -0.53125 2.984375 -0.53125 C 3.460938 -0.53125 3.859375 -0.632812 4.171875 -0.84375 C 4.484375 -1.0625 4.710938 -1.351562 4.859375 -1.71875 L 5.671875 -1.71875 C 5.453125 -1.144531 5.097656 -0.695312 4.609375 -0.375 C 4.128906 -0.0507812 3.550781 0.109375 2.875 0.109375 Z M 2.875 0.109375 "/></g></g></g><g fill="#304543" fill-opacity="1"><g transform="translate(189.50715, 212.017332)"><g><path d="M 0.265625 0 L 1.3125 -5.953125 L 2.015625 -5.953125 L 0.984375 0 Z M 0.265625 0 "/></g></g></g><g fill="#304543" fill-opacity="1"><g transform="translate(194.861918, 212.017332)"><g><path d="M -0.125 0 L 3.125 -5.953125 L 3.890625 -5.953125 L 5.015625 0 L 4.28125 0 L 4 -1.53125 L 1.46875 -1.53125 L 0.640625 0 Z M 1.765625 -2.09375 L 3.890625 -2.09375 L 3.34375 -5.09375 Z M 1.765625 -2.09375 "/></g></g></g><g fill="#304543" fill-opacity="1"><g transform="translate(203.878152, 212.017332)"><g><path d="M 0.265625 0 L 1.3125 -5.953125 L 2.015625 -5.953125 L 1.078125 -0.5625 L 3.84375 -0.5625 L 3.75 0 Z M 0.265625 0 "/></g></g></g><g fill="#304543" fill-opacity="1"><g transform="translate(211.722036, 212.017332)"><g><path d="M 0.265625 0 L 1.3125 -5.953125 L 2.015625 -5.953125 L 0.984375 0 Z M 0.265625 0 "/></g></g></g><g fill="#304543" fill-opacity="1"><g transform="translate(217.076804, 212.017332)"><g><path d="M 2.28125 0.109375 C 1.894531 0.109375 1.554688 0.046875 1.265625 -0.078125 C 0.972656 -0.210938 0.742188 -0.394531 0.578125 -0.625 C 0.410156 -0.863281 0.328125 -1.132812 0.328125 -1.4375 C 0.328125 -1.488281 0.328125 -1.546875 0.328125 -1.609375 C 0.335938 -1.671875 0.347656 -1.726562 0.359375 -1.78125 L 1.109375 -1.78125 C 1.097656 -1.707031 1.09375 -1.632812 1.09375 -1.5625 C 1.09375 -1.25 1.207031 -0.992188 1.4375 -0.796875 C 1.664062 -0.597656 1.972656 -0.5 2.359375 -0.5 C 2.816406 -0.5 3.160156 -0.609375 3.390625 -0.828125 C 3.628906 -1.054688 3.75 -1.347656 3.75 -1.703125 C 3.75 -1.890625 3.703125 -2.046875 3.609375 -2.171875 C 3.515625 -2.296875 3.390625 -2.394531 3.234375 -2.46875 C 3.078125 -2.550781 2.898438 -2.625 2.703125 -2.6875 C 2.503906 -2.757812 2.304688 -2.832031 2.109375 -2.90625 C 1.742188 -3.039062 1.46875 -3.222656 1.28125 -3.453125 C 1.09375 -3.691406 1 -3.960938 1 -4.265625 C 1 -4.617188 1.085938 -4.929688 1.265625 -5.203125 C 1.441406 -5.472656 1.6875 -5.679688 2 -5.828125 C 2.320312 -5.972656 2.691406 -6.046875 3.109375 -6.046875 C 3.441406 -6.046875 3.738281 -5.988281 4 -5.875 C 4.257812 -5.757812 4.457031 -5.597656 4.59375 -5.390625 C 4.738281 -5.179688 4.8125 -4.941406 4.8125 -4.671875 C 4.8125 -4.578125 4.800781 -4.488281 4.78125 -4.40625 L 4.046875 -4.40625 C 4.046875 -4.4375 4.046875 -4.460938 4.046875 -4.484375 C 4.046875 -4.503906 4.046875 -4.53125 4.046875 -4.5625 C 4.046875 -4.78125 3.957031 -4.976562 3.78125 -5.15625 C 3.613281 -5.34375 3.359375 -5.4375 3.015625 -5.4375 C 2.640625 -5.4375 2.335938 -5.335938 2.109375 -5.140625 C 1.878906 -4.941406 1.765625 -4.6875 1.765625 -4.375 C 1.765625 -4.15625 1.832031 -3.984375 1.96875 -3.859375 C 2.101562 -3.734375 2.285156 -3.628906 2.515625 -3.546875 C 2.753906 -3.460938 3.015625 -3.367188 3.296875 -3.265625 C 3.640625 -3.128906 3.925781 -2.941406 4.15625 -2.703125 C 4.394531 -2.472656 4.515625 -2.171875 4.515625 -1.796875 C 4.515625 -1.410156 4.421875 -1.078125 4.234375 -0.796875 C 4.054688 -0.515625 3.796875 -0.289062 3.453125 -0.125 C 3.117188 0.03125 2.726562 0.109375 2.28125 0.109375 Z M 2.28125 0.109375 "/></g></g></g><g fill="#304543" fill-opacity="1"><g transform="translate(225.47288, 212.017332)"><g><path d="M 1.65625 0 L 2.59375 -5.375 L 0.828125 -5.375 L 0.921875 -5.953125 L 5.1875 -5.953125 L 5.078125 -5.375 L 3.3125 -5.375 L 2.359375 0 Z M 1.65625 0 "/></g></g></g><g fill="#304543" fill-opacity="1"><g transform="translate(233.597112, 212.017332)"><g><path d="M 0.265625 0 L 1.3125 -5.953125 L 4.75 -5.953125 L 4.640625 -5.375 L 1.921875 -5.375 L 1.5625 -3.28125 L 4.015625 -3.28125 L 3.921875 -2.71875 L 1.453125 -2.71875 L 1.078125 -0.5625 L 3.796875 -0.5625 L 3.703125 0 Z M 0.265625 0 "/></g></g></g></svg>